<mxfile host="app.diagrams.net" modified="2024-02-14T17:41:52.167Z" agent="Mozilla/5.0 (Windows NT 10.0; Win64; x64) AppleWebKit/537.36 (KHTML, like Gecko) Chrome/120.0.0.0 YaBrowser/24.1.0.0 Safari/537.36" etag="CpYZkBsnazqAeFNvlSIn" version="23.1.4" type="device">
  <diagram name="Страница 1" id="YcMkbAjrySwGpOpTXCe6">
    <mxGraphModel dx="1156" dy="659" grid="1" gridSize="10" guides="1" tooltips="1" connect="1" arrows="1" fold="1" page="1" pageScale="1" pageWidth="827" pageHeight="1169" math="0" shadow="0">
      <root>
        <mxCell id="0" />
        <mxCell id="1" parent="0" />
        <mxCell id="IiKDTG6FVzXJoKpAPtBs-2" value="&lt;b&gt;&lt;font style=&quot;font-size: 14px;&quot;&gt;ReportManager&lt;/font&gt;&lt;/b&gt;&lt;br&gt;основной модуль" style="rounded=0;whiteSpace=wrap;html=1;" vertex="1" parent="1">
          <mxGeometry x="310" y="170" width="170" height="70" as="geometry" />
        </mxCell>
        <mxCell id="IiKDTG6FVzXJoKpAPtBs-3" value="Подпрограммы генерирующие отчёты" style="rounded=0;whiteSpace=wrap;html=1;" vertex="1" parent="1">
          <mxGeometry x="480" y="320" width="170" height="70" as="geometry" />
        </mxCell>
        <mxCell id="IiKDTG6FVzXJoKpAPtBs-4" value="Административные&lt;br&gt;подпрограммы" style="rounded=0;whiteSpace=wrap;html=1;" vertex="1" parent="1">
          <mxGeometry x="140" y="320" width="170" height="70" as="geometry" />
        </mxCell>
        <mxCell id="IiKDTG6FVzXJoKpAPtBs-8" value="" style="endArrow=none;html=1;rounded=0;entryX=-0.004;entryY=0.422;entryDx=0;entryDy=0;exitX=1.015;exitY=0.43;exitDx=0;exitDy=0;strokeWidth=1;entryPerimeter=0;exitPerimeter=0;" edge="1" parent="1" source="IiKDTG6FVzXJoKpAPtBs-4" target="IiKDTG6FVzXJoKpAPtBs-3">
          <mxGeometry width="50" height="50" relative="1" as="geometry">
            <mxPoint x="410" y="320" as="sourcePoint" />
            <mxPoint x="460" y="270" as="targetPoint" />
            <Array as="points">
              <mxPoint x="390" y="350" />
            </Array>
          </mxGeometry>
        </mxCell>
        <mxCell id="IiKDTG6FVzXJoKpAPtBs-9" value="" style="endArrow=none;html=1;rounded=0;entryX=0.5;entryY=1;entryDx=0;entryDy=0;" edge="1" parent="1" target="IiKDTG6FVzXJoKpAPtBs-2">
          <mxGeometry width="50" height="50" relative="1" as="geometry">
            <mxPoint x="395" y="350" as="sourcePoint" />
            <mxPoint x="460" y="270" as="targetPoint" />
          </mxGeometry>
        </mxCell>
        <mxCell id="IiKDTG6FVzXJoKpAPtBs-16" style="edgeStyle=orthogonalEdgeStyle;rounded=0;orthogonalLoop=1;jettySize=auto;html=1;entryX=0.5;entryY=1;entryDx=0;entryDy=0;" edge="1" parent="1" source="IiKDTG6FVzXJoKpAPtBs-10" target="IiKDTG6FVzXJoKpAPtBs-14">
          <mxGeometry relative="1" as="geometry" />
        </mxCell>
        <mxCell id="IiKDTG6FVzXJoKpAPtBs-10" value="База&lt;br&gt;данных" style="shape=cylinder3;whiteSpace=wrap;html=1;boundedLbl=1;backgroundOutline=1;size=15;" vertex="1" parent="1">
          <mxGeometry x="365" y="710" width="60" height="80" as="geometry" />
        </mxCell>
        <mxCell id="IiKDTG6FVzXJoKpAPtBs-11" style="edgeStyle=orthogonalEdgeStyle;rounded=0;orthogonalLoop=1;jettySize=auto;html=1;entryX=0;entryY=0.5;entryDx=0;entryDy=0;entryPerimeter=0;exitX=0.5;exitY=1;exitDx=0;exitDy=0;" edge="1" parent="1" source="IiKDTG6FVzXJoKpAPtBs-4" target="IiKDTG6FVzXJoKpAPtBs-10">
          <mxGeometry relative="1" as="geometry" />
        </mxCell>
        <mxCell id="IiKDTG6FVzXJoKpAPtBs-12" value="" style="endArrow=none;html=1;rounded=0;entryX=0.5;entryY=1;entryDx=0;entryDy=0;" edge="1" parent="1">
          <mxGeometry width="50" height="50" relative="1" as="geometry">
            <mxPoint x="566" y="500" as="sourcePoint" />
            <mxPoint x="566" y="390" as="targetPoint" />
          </mxGeometry>
        </mxCell>
        <mxCell id="IiKDTG6FVzXJoKpAPtBs-13" value="" style="endArrow=none;html=1;rounded=0;entryX=-0.004;entryY=0.422;entryDx=0;entryDy=0;exitX=1.008;exitY=0.42;exitDx=0;exitDy=0;strokeWidth=1;entryPerimeter=0;exitPerimeter=0;" edge="1" parent="1" source="IiKDTG6FVzXJoKpAPtBs-15">
          <mxGeometry width="50" height="50" relative="1" as="geometry">
            <mxPoint x="484" y="500" as="sourcePoint" />
            <mxPoint x="650" y="500" as="targetPoint" />
            <Array as="points">
              <mxPoint x="561" y="500" />
            </Array>
          </mxGeometry>
        </mxCell>
        <mxCell id="IiKDTG6FVzXJoKpAPtBs-14" value="Отчёты с &lt;br&gt;предопределённой&lt;br&gt;структурой" style="rounded=0;whiteSpace=wrap;html=1;" vertex="1" parent="1">
          <mxGeometry x="590" y="470" width="170" height="70" as="geometry" />
        </mxCell>
        <mxCell id="IiKDTG6FVzXJoKpAPtBs-15" value="Отчёты с&lt;br&gt;произвольной структурой" style="rounded=0;whiteSpace=wrap;html=1;" vertex="1" parent="1">
          <mxGeometry x="370" y="470" width="170" height="70" as="geometry" />
        </mxCell>
        <mxCell id="IiKDTG6FVzXJoKpAPtBs-17" style="edgeStyle=orthogonalEdgeStyle;rounded=0;orthogonalLoop=1;jettySize=auto;html=1;entryX=0.5;entryY=1;entryDx=0;entryDy=0;exitX=1;exitY=0.5;exitDx=0;exitDy=0;exitPerimeter=0;" edge="1" parent="1" source="IiKDTG6FVzXJoKpAPtBs-10" target="IiKDTG6FVzXJoKpAPtBs-15">
          <mxGeometry relative="1" as="geometry" />
        </mxCell>
      </root>
    </mxGraphModel>
  </diagram>
</mxfile>
